# xmcd CD database file
#
# Track frame offsets:
#	150
#	12435
#	24680
#	37507
#	48647
#	61242
#	73540
#	87097
#	99210
#	111352
#	119754
#	133415
#	148282
#	160107
#	171895
#	185640
#	198725
#	210915
#	222572
#	233867
#
# Disc length: 3275 seconds
#
# Revision: 0
# Processed by: cddbd v1.5.2PL0 Copyright (c) Steve Scherf et al.
# Submitted via: CDex 1.51
#
DISCID=2b0cc914
DTITLE=Various Artist - The Hoy Hoy Collection - Rock Before Elvis! [CD1]
DYEAR=1995
DGENRE=Blues
TTITLE0=01-Rock Awhile - Goree Carter And His Hep Cats
TTITLE1=02-Good Rocking Tonight - The Wyonie Harris All Stars
TTITLE2=03-I Want To Rock And Roll - Scatman Crothers
TTITLE3=04-Amos's Blues - Amos Milburn
TTITLE4=05-Rockin' The House - Memphis Slim And His Rocker
TTITLE5=06-Atalanta Boogie - Tommy Brown
TTITLE6=07-Doby's Boogie - Freddie Mitchell Orchestra
TTITLE7=08-I Want To Boogie Woogie - Buster Bennett Band
TTITLE8=09-Jump The Boogie - Luke Jones With Joe Alexander's Highlanders
TTITLE9=10-Shufflin' Boogie - Luke Jones With Joe Alexander's Highlanders
TTITLE10=11-Roy Brown's Boogie - Roy Brown And His Mighty Men
TTITLE11=12-Leroy Sent Me - Joe Brown And His Kool Kats
TTITLE12=13-Sausage Rock - Doc Sausage
TTITLE13=14-Ooo, Ouch, Stop - Big Joe Turner With The Flennoy Trio
TTITLE14=15-The Boogie Rocks - Albert Ammons
TTITLE15=16-Rockola - Joe Lutcher And His Society Cats
TTITLE16=17-The Bulldog Blues - Joe Brown And His Kool Kats
TTITLE17=18-Rock The Joint - Jommy Preston And His Prestonians
TTITLE18=19-Ofay and Oxford Gray - Louis Jordan And His Tympany Five
TTITLE19=20-That's All Right Baby - Joe Turner And Pete Johnson
EXTD=YEAR: 1995
EXTT0=
EXTT1=
EXTT2=
EXTT3=
EXTT4=
EXTT5=
EXTT6=
EXTT7=
EXTT8=
EXTT9=
EXTT10=
EXTT11=
EXTT12=
EXTT13=
EXTT14=
EXTT15=
EXTT16=
EXTT17=
EXTT18=
EXTT19=
PLAYORDER=
